<svg xmlns="http://www.w3.org/2000/svg" width="16" height="16" fill="none"><path fill="#E5E5E5" d="M0 0h16v16H0z"/><rect width="1237" height="2396" x="-600" y="-2227" fill="#fff" rx="24"/><rect width="15" height="15" x=".5" y=".5" fill="#404BBF" rx="1.5"/><path fill="#F4F4FD" d="M11.446 4.255A.917.917 0 0 1 13 4.901a.928.928 0 0 1-.242.649l-4.894 6.154a.921.921 0 0 1-1.019.229.918.918 0 0 1-.306-.204L3.293 8.466a.925.925 0 0 1-.226-1.024.925.925 0 0 1 .87-.578.916.916 0 0 1 .656.294L7.162 9.74l4.26-5.458a.311.311 0 0 1 .025-.027h-.001Z"/><rect width="15" height="15" x=".5" y=".5" stroke="#404BBF" rx="1.5"/><rect width="53" height="89" x="-19.5" y="-54.5" stroke="#9747FF" stroke-dasharray="10 5" rx="4.5"/></svg>